<?xml version="1.0" encoding="iso-8859-1"?>
<!-- Generator: Adobe Illustrator 19.0.0, SVG Export Plug-In . SVG Version: 6.00 Build 0)  -->
<svg version="1.1" id="Capa_1" xmlns="http://www.w3.org/2000/svg" xmlns:xlink="http://www.w3.org/1999/xlink" x="0px" y="0px"
	 viewBox="0 0 512 512" style="enable-background:new 0 0 512 512;" xml:space="preserve">
<path style="fill:#CCCCCC;" d="M70.766,503.969l34.499-58.378h150.74v4.016c-13.883,0-25.178,11.29-25.178,25.168
	c0,13.883,11.295,25.178,25.178,25.178v4.016H70.766z"/>
<path style="fill:#5A6B96;" d="M256.005,503.969c-16.098,0-29.194-13.096-29.194-29.194c0-16.092,13.096-29.184,29.194-29.184
	c16.092,0,29.184,13.092,29.184,29.184C285.189,490.872,272.097,503.969,256.005,503.969z"/>
<path style="fill:#CCCCCC;" d="M256.005,503.969v-4.016c13.878,0,25.168-11.295,25.168-25.178c0-13.878-11.29-25.168-25.168-25.168
	v-4.016h150.73l34.499,58.378H256.005z"/>
<rect x="144.565" y="405.584" style="fill:#FBC640;" width="222.871" height="44.022"/>
<path style="fill:#8CE0FF;" d="M363.424,449.606V409.6h-92.361v-69.089l1.683-0.276c49.826-8.167,85.99-50.804,85.99-101.382
	c0-29.096-12.227-70.648-30.425-103.395c-12.443-22.39-38.382-59.953-72.306-59.953c-33.931,0-59.872,37.563-72.315,59.953
	c-18.199,32.747-30.426,74.298-30.426,103.395c0,50.577,36.163,93.214,85.99,101.382l1.683,0.276V409.6h-92.351v40.006h-44.183
	V159.624c0-83.589,68.009-151.592,151.602-151.592c40.493,0,78.561,15.769,107.193,44.399c28.632,28.631,44.399,66.7,44.399,107.193
	v289.983H363.424z"/>
<path style="fill:#44C973;" d="M238.603,344.199c-24.691-4.048-47.308-16.797-63.683-35.897
	c-16.556-19.311-25.673-43.976-25.673-69.448c0-30.184,12.141-71.534,30.932-105.346c12.872-23.161,39.84-62.018,75.825-62.018
	c35.981,0,62.946,38.857,75.817,62.018c18.789,33.812,30.93,75.163,30.93,105.346c0,25.471-9.117,50.133-25.669,69.444
	c-16.375,19.104-38.992,31.853-63.687,35.901l-2.333,0.383v-98.691c0-4.028-1.567-7.813-4.411-10.658
	c-2.845-2.844-6.626-4.411-10.648-4.411c-8.308,0-15.069,6.759-15.069,15.069v98.69L238.603,344.199z"/>
<path style="fill:#917464;" d="M236.92,409.6v-163.71c0-10.523,8.561-19.085,19.085-19.085c5.094,0,9.884,1.985,13.487,5.588
	c3.603,3.603,5.588,8.397,5.588,13.497V409.6H236.92z"/>
<path d="M74.285,512h363.43c3.605,0,6.933-1.932,8.72-5.064s1.757-6.979-0.077-10.082l-30.729-51.999V159.624
	c0-30.948-8.872-60.97-25.656-86.822c-3.02-4.65-9.237-5.974-13.887-2.954c-4.65,3.019-5.972,9.237-2.954,13.887
	c14.665,22.589,22.418,48.831,22.418,75.888v277.936H375.47v-29.967c0-5.545-4.495-10.039-10.039-10.039H283.11v-47.162
	c23.252-5.647,44.344-18.521,60.07-36.867c17.8-20.766,27.603-47.285,27.603-74.671c0-60.042-48.469-175.395-114.778-175.395
	c-66.314,0-114.788,115.354-114.788,175.395c0,27.389,9.804,53.909,27.607,74.675c15.725,18.344,36.816,31.216,60.066,36.863v47.162
	h-82.312c-5.545,0-10.039,4.495-10.039,10.039v29.967h-20.088V159.624c0-76.946,62.604-139.545,139.555-139.545
	c30.227,0,58.987,9.503,83.173,27.483c4.448,3.307,10.739,2.382,14.047-2.067c3.308-4.45,2.382-10.739-2.067-14.047
	C323.482,10.874,290.58,0,256.005,0C167.983,0,96.371,71.607,96.371,159.624v285.231l-30.729,51.999
	c-1.834,3.103-1.863,6.952-0.077,10.082C67.351,510.066,70.68,512,74.285,512z M238.858,474.775c0-9.449,7.692-17.137,17.147-17.137
	c9.449,0,17.137,7.688,17.137,17.137c0,9.455-7.688,17.147-17.137,17.147C246.55,491.922,238.858,484.23,238.858,474.775z
	 M289.02,491.922c2.676-5.136,4.199-10.966,4.199-17.147c0-6.178-1.522-12.004-4.196-17.137h76.409h34.428l20.26,34.284H289.02z
	 M263.032,397.553h-14.065V245.891c0-3.88,3.157-7.037,7.037-7.037c1.876,0,3.64,0.732,4.968,2.059
	c1.328,1.327,2.059,3.095,2.059,4.978V397.553z M161.295,238.853c0-27.852,11.82-67.835,29.415-99.494
	c19.715-35.477,43.515-55.823,65.295-55.823c21.776,0,45.573,20.346,65.287,55.823c17.593,31.659,29.413,71.643,29.413,99.494
	c0,42.574-27.8,79.03-67.594,90.777v-28.047l19.979-9.794c4.978-2.441,7.036-8.454,4.596-13.432
	c-2.442-4.979-8.457-7.038-13.432-4.596l-11.143,5.461v-19.975l19.979-9.794c4.978-2.441,7.036-8.454,4.596-13.432
	c-2.442-4.979-8.457-7.037-13.432-4.596l-12.456,6.106c-1.301-4.035-3.543-7.733-6.626-10.816c-5.12-5.12-11.927-7.94-19.166-7.94
	c-14.951,0-27.116,12.165-27.116,27.116v19.032l-11.17-6.79c-4.736-2.88-10.914-1.374-13.793,3.364
	c-2.88,4.737-1.374,10.914,3.364,13.793l21.599,13.13v41.209C189.094,317.882,161.295,281.426,161.295,238.853z M156.617,417.631
	h82.312h34.143h82.322v19.928H156.617V417.631z M112.139,457.638h34.439h76.4c-2.675,5.133-4.198,10.959-4.198,17.137
	c0,6.181,1.523,12.011,4.201,17.147H91.879L112.139,457.638z"/>
<path d="M149.255,464.738c-12.919,0-12.941,20.078,0,20.078C162.174,484.817,162.195,464.738,149.255,464.738z"/>
<path d="M186.734,464.738c-12.919,0-12.941,20.078,0,20.078C199.654,484.817,199.675,464.738,186.734,464.738z"/>
<path d="M365.432,67.263c12.919,0,12.941-20.078,0-20.078C352.513,47.184,352.492,67.263,365.432,67.263z"/>
<g>
</g>
<g>
</g>
<g>
</g>
<g>
</g>
<g>
</g>
<g>
</g>
<g>
</g>
<g>
</g>
<g>
</g>
<g>
</g>
<g>
</g>
<g>
</g>
<g>
</g>
<g>
</g>
<g>
</g>
</svg>
