<svg id="Capa_1" enable-background="new 0 0 512 512" height="512" viewBox="0 0 512 512" width="512" xmlns="http://www.w3.org/2000/svg" xmlns:xlink="http://www.w3.org/1999/xlink"><linearGradient id="SVGID_1_" gradientUnits="userSpaceOnUse" x1="256" x2="256" y1="512" y2="0"><stop offset="0" stop-color="#ffbef9"/><stop offset="1" stop-color="#fff1ff"/></linearGradient><linearGradient id="SVGID_2_" gradientUnits="userSpaceOnUse" x1="256.003" x2="256.003" y1="407" y2="105"><stop offset="0" stop-color="#ff81ff"/><stop offset="1" stop-color="#a93aff"/></linearGradient><g><g><circle cx="256" cy="256" fill="url(#SVGID_1_)" r="256"/></g><g><g><path d="m308.465 158.294h-104.925c-.487 2.896-.832 5.844-.832 8.882 0 18.475 9.416 34.818 23.805 44.412h58.978c14.389-9.594 23.805-25.937 23.805-44.412.001-3.038-.344-5.986-.831-8.882zm-43.58 35.529c0 4.91-3.973 8.883-8.882 8.883-4.91 0-8.882-3.973-8.882-8.883v-17.765c0-4.909 3.973-8.882 8.882-8.882 4.91 0 8.882 3.973 8.882 8.882zm25.582 79.942h-68.927c-21.85 12.08-36.595 35.352-36.595 62.177 0 39.259 31.798 71.059 71.059 71.059s71.059-31.8 71.059-71.059c-.001-26.826-14.746-50.097-36.596-62.177zm-34.464 79.941c-4.905 0-8.882-3.978-8.882-8.883 0-4.906 3.977-8.882 8.882-8.882s8.882 3.976 8.882 8.882-3.977 8.883-8.882 8.883zm0-35.53c-4.905 0-8.882-3.977-8.882-8.882 0-4.906 3.977-8.882 8.882-8.882s8.882 3.976 8.882 8.882c0 4.905-3.977 8.882-8.882 8.882zm-39.971-88.823c-7.358 0-13.324 5.964-13.324 13.323 0 7.358 5.966 13.324 13.324 13.324h79.941c7.358 0 13.324-5.966 13.324-13.324 0-7.359-5.966-13.323-13.324-13.323zm-13.323-88.824h106.588c4.909 0 8.882-3.973 8.882-8.882s-3.973-8.882-8.882-8.882h-8.882v-8.882c0-4.91-3.973-8.882-8.882-8.882h-71.059c-4.91 0-8.882 3.973-8.882 8.882v8.882h-8.882c-4.91 0-8.882 3.973-8.882 8.882s3.971 8.882 8.881 8.882zm195.412 106.589h-18.932l26.323-39.485c2.724-4.085 1.622-9.594-2.464-12.317-4.103-2.715-9.611-1.622-12.317 2.463l-8.201 12.304-13.657-13.657c-3.47-3.47-9.091-3.47-12.56 0s-3.47 9.09 0 12.56l16.171 16.171-16.292 24.442-36.627 24.417c4.169 4.283 7.839 8.978 11.049 13.98l34.669-23.113h32.84c4.91 0 8.882-3.973 8.882-8.882s-3.975-8.883-8.884-8.883zm-242.305 2.481-16.292-24.442 16.171-16.171c3.47-3.47 3.47-9.09 0-12.56s-9.091-3.47-12.56 0l-13.657 13.657-8.201-12.304c-2.724-4.085-8.232-5.178-12.317-2.463-4.085 2.724-5.187 8.232-2.463 12.317l26.323 39.485h-18.932c-4.91 0-8.882 3.973-8.882 8.882s3.973 8.882 8.882 8.882h32.84l34.668 23.113c3.209-5.002 6.88-9.698 11.049-13.98z" fill="url(#SVGID_2_)"/></g></g></g></svg>